<svg width="11" height="6" viewBox="0 0 11 6" fill="none" xmlns="http://www.w3.org/2000/svg">
<path d="M0.720115 0.6912C0.861098 0.568775 1.05229 0.5 1.25163 0.5C1.45098 0.5 1.64217 0.568775 1.78315 0.6912L5.50454 3.92372L9.22592 0.6912C9.36771 0.572244 9.55762 0.506422 9.75474 0.50791C9.95186 0.509398 10.1404 0.578077 10.2798 0.699154C10.4192 0.820232 10.4983 0.984021 10.5 1.15524C10.5017 1.32647 10.4259 1.49143 10.289 1.61459L6.03606 5.3088C5.89508 5.43123 5.70389 5.5 5.50454 5.5C5.30519 5.5 5.114 5.43123 4.97302 5.3088L0.720115 1.61459C0.579176 1.49213 0.5 1.32606 0.5 1.15289C0.5 0.979733 0.579176 0.813661 0.720115 0.6912Z" fill="white"/>
</svg>
