<svg width="839" height="446" viewBox="0 0 839 446" fill="none" xmlns="http://www.w3.org/2000/svg">
<g style="mix-blend-mode:lighten">
<path fill-rule="evenodd" clip-rule="evenodd" d="M296.5 79.4964V0.431641V79.4964Z" stroke="#272730"/>
<path fill-rule="evenodd" clip-rule="evenodd" d="M296.5 445.691V366.626V445.691Z" stroke="#272730"/>
<path fill-rule="evenodd" clip-rule="evenodd" d="M388.048 79.4964V0.431641V79.4964Z" stroke="#272730"/>
<path fill-rule="evenodd" clip-rule="evenodd" d="M388.048 445.691V366.626V445.691Z" stroke="#272730"/>
<path fill-rule="evenodd" clip-rule="evenodd" d="M479.597 79.4964V0.431641V79.4964Z" stroke="#272730"/>
<path fill-rule="evenodd" clip-rule="evenodd" d="M571.146 79.4964V0.431641V79.4964Z" stroke="#272730"/>
<path fill-rule="evenodd" clip-rule="evenodd" d="M571.146 262.595V183.53V262.595Z" stroke="#272730"/>
<path fill-rule="evenodd" clip-rule="evenodd" d="M662.695 262.595V183.53V262.595Z" stroke="#272730"/>
<path fill-rule="evenodd" clip-rule="evenodd" d="M754.243 262.595V183.53V262.595Z" stroke="#272730"/>
<path fill-rule="evenodd" clip-rule="evenodd" d="M479.597 354.142V275.078V354.142Z" stroke="#272730"/>
<path fill-rule="evenodd" clip-rule="evenodd" d="M388.049 354.142V275.078V354.142Z" stroke="#272730"/>
<path fill-rule="evenodd" clip-rule="evenodd" d="M296.5 354.142V275.078V354.142Z" stroke="#272730"/>
<path fill-rule="evenodd" clip-rule="evenodd" d="M204.951 354.142V275.078V354.142Z" stroke="#272730"/>
<path fill-rule="evenodd" clip-rule="evenodd" d="M479.597 445.691V366.626V445.691Z" stroke="#272730"/>
<path fill-rule="evenodd" clip-rule="evenodd" d="M571.146 354.142V275.078V354.142Z" stroke="#272730"/>
<path fill-rule="evenodd" clip-rule="evenodd" d="M571.146 445.691V366.626V445.691Z" stroke="#272730"/>
<path fill-rule="evenodd" clip-rule="evenodd" d="M662.695 354.142V275.078V354.142Z" stroke="#272730"/>
<path fill-rule="evenodd" clip-rule="evenodd" d="M289 85.5552H211H289Z" stroke="#272730"/>
<path fill-rule="evenodd" clip-rule="evenodd" d="M289 359.555H211H289Z" stroke="#272730"/>
<path fill-rule="evenodd" clip-rule="evenodd" d="M381 85.5552H303H381Z" stroke="#272730"/>
<path fill-rule="evenodd" clip-rule="evenodd" d="M381 359.555H303H381Z" stroke="#272730"/>
<path fill-rule="evenodd" clip-rule="evenodd" d="M473 85.5552H394H473Z" stroke="#272730"/>
<path fill-rule="evenodd" clip-rule="evenodd" d="M473 359.555H394H473Z" stroke="#272730"/>
<path fill-rule="evenodd" clip-rule="evenodd" d="M564 85.5552H486H564Z" stroke="#272730"/>
<path fill-rule="evenodd" clip-rule="evenodd" d="M564 268.555H486H564Z" stroke="#272730"/>
<path fill-rule="evenodd" clip-rule="evenodd" d="M472 268.555H394H472Z" stroke="#272730"/>
<path fill-rule="evenodd" clip-rule="evenodd" d="M288 268.555H210H288Z" stroke="#272730"/>
<path fill-rule="evenodd" clip-rule="evenodd" d="M380 268.555H302H380Z" stroke="#272730"/>
<path fill-rule="evenodd" clip-rule="evenodd" d="M196 268.555H118H196Z" stroke="#272730"/>
<path fill-rule="evenodd" clip-rule="evenodd" d="M564 359.555H486H564Z" stroke="#272730"/>
<path fill-rule="evenodd" clip-rule="evenodd" d="M198 85.5552H119H198Z" stroke="#272730"/>
<path fill-rule="evenodd" clip-rule="evenodd" d="M106 85.5552H28.0001H106Z" stroke="#272730"/>
<path fill-rule="evenodd" clip-rule="evenodd" d="M14.0001 85.5552H-62.9999H14.0001Z" stroke="#272730"/>
<path fill-rule="evenodd" clip-rule="evenodd" d="M655 85.5552H578H655Z" stroke="#272730"/>
<path fill-rule="evenodd" clip-rule="evenodd" d="M106 176.555H28.0001H106Z" stroke="#272730"/>
<path fill-rule="evenodd" clip-rule="evenodd" d="M14.0001 176.555H-62.9999H14.0001Z" stroke="#272730"/>
<path fill-rule="evenodd" clip-rule="evenodd" d="M655 176.555H578H655Z" stroke="#272730"/>
<path fill-rule="evenodd" clip-rule="evenodd" d="M748 176.555H669H748Z" stroke="#272730"/>
<path fill-rule="evenodd" clip-rule="evenodd" d="M839 176.555H760H839Z" stroke="#272730"/>
<path fill-rule="evenodd" clip-rule="evenodd" d="M198 359.555H119H198Z" stroke="#272730"/>
<path fill-rule="evenodd" clip-rule="evenodd" d="M106 268.555H28.0001H106Z" stroke="#272730"/>
<path fill-rule="evenodd" clip-rule="evenodd" d="M14.0001 268.555H-62.9999H14.0001Z" stroke="#272730"/>
<path fill-rule="evenodd" clip-rule="evenodd" d="M106 359.555H28.0001H106Z" stroke="#272730"/>
<path fill-rule="evenodd" clip-rule="evenodd" d="M14.0001 359.555H-62.9999H14.0001Z" stroke="#272730"/>
<path fill-rule="evenodd" clip-rule="evenodd" d="M655 268.555H578H655Z" stroke="#272730"/>
<path fill-rule="evenodd" clip-rule="evenodd" d="M655 359.555H578H655Z" stroke="#272730"/>
<path fill-rule="evenodd" clip-rule="evenodd" d="M748 268.555H669H748Z" stroke="#272730"/>
<path fill-rule="evenodd" clip-rule="evenodd" d="M839 268.555H760H839Z" stroke="#272730"/>
<path fill-rule="evenodd" clip-rule="evenodd" d="M204.951 79.4964V0.431641V79.4964Z" stroke="#272730"/>
<path fill-rule="evenodd" clip-rule="evenodd" d="M113.402 79.4964V0.431641V79.4964Z" stroke="#272730"/>
<path fill-rule="evenodd" clip-rule="evenodd" d="M21.8542 79.4964L21.8542 0.431641L21.8542 79.4964Z" stroke="#272730"/>
<path fill-rule="evenodd" clip-rule="evenodd" d="M113.402 262.595V183.53V262.595Z" stroke="#272730"/>
<path fill-rule="evenodd" clip-rule="evenodd" d="M21.8542 262.595L21.8542 183.53L21.8542 262.595Z" stroke="#272730"/>
<path fill-rule="evenodd" clip-rule="evenodd" d="M204.951 445.691V366.626V445.691Z" stroke="#272730"/>
<path fill-rule="evenodd" clip-rule="evenodd" d="M113.402 354.142V275.078V354.142Z" stroke="#272730"/>
<path fill-rule="evenodd" clip-rule="evenodd" d="M21.8542 354.142L21.8542 275.078L21.8542 354.142Z" stroke="#272730"/>
<path fill-rule="evenodd" clip-rule="evenodd" d="M113.402 445.691V366.626V445.691Z" stroke="#272730"/>
<path fill-rule="evenodd" clip-rule="evenodd" d="M21.8542 445.691L21.8542 366.626L21.8542 445.691Z" stroke="#272730"/>
<path fill-rule="evenodd" clip-rule="evenodd" d="M113.402 171.045V91.9805V171.045Z" stroke="#272730"/>
<path fill-rule="evenodd" clip-rule="evenodd" d="M21.8542 171.045L21.8542 91.9805L21.8542 171.045Z" stroke="#272730"/>
<path fill-rule="evenodd" clip-rule="evenodd" d="M571.146 171.045V91.9805V171.045Z" stroke="#272730"/>
<path fill-rule="evenodd" clip-rule="evenodd" d="M662.695 171.045V91.9805V171.045Z" stroke="#272730"/>
</g>
</svg>
