<svg width="307" height="84" viewBox="0 0 307 84" fill="none" xmlns="http://www.w3.org/2000/svg">
<g clip-path="url(#clip0_1549_44449)">
<path d="M45.8398 55.55C45.5598 55.09 45.4998 54.44 45.6998 53.93C45.8798 53.42 46.3398 52.96 46.8598 52.8C48.6198 52.21 50.2498 51.02 51.3498 49.53C51.6698 49.09 52.2398 48.79 52.7898 48.78C53.3298 48.75 53.9298 49 54.2798 49.41L75.0598 72.71C75.4098 73.09 75.5898 73.66 75.5298 74.17C75.4798 74.68 75.1798 75.21 74.7598 75.5L64.3198 83.08C63.9098 83.39 63.3198 83.52 62.8198 83.4C62.3098 83.3 61.8198 82.95 61.5698 82.5L45.8298 55.54L45.8398 55.55Z" fill="#0091F9"/>
<path d="M55.5503 45.5C55.0203 45.63 54.3903 45.48 53.9703 45.13C53.5403 44.8 53.2503 44.22 53.2503 43.68C53.2303 41.83 52.6103 39.91 51.5303 38.4C51.2103 37.96 51.1003 37.32 51.2603 36.8C51.4003 36.27 51.8203 35.78 52.3203 35.57L80.9003 23.01C81.3703 22.8 81.9703 22.8 82.4403 23.01C82.9103 23.21 83.3203 23.66 83.4703 24.15L87.4603 36.42C87.6303 36.91 87.5603 37.51 87.3003 37.95C87.0503 38.4 86.5603 38.76 86.0603 38.86L55.5503 45.49V45.5Z" fill="#0091F9"/>
<path d="M35.2307 35.57C35.7307 35.78 36.1607 36.27 36.2907 36.8C36.4507 37.32 36.3407 37.96 36.0207 38.4C34.9507 39.91 34.3207 41.83 34.3007 43.68C34.3007 44.22 34.0107 44.81 33.5807 45.13C33.1607 45.48 32.5307 45.62 32.0007 45.5L1.49071 38.86C0.990713 38.76 0.500713 38.4 0.250713 37.95C-0.00928655 37.51 -0.0792865 36.91 0.0907135 36.42L4.08071 24.15C4.23071 23.66 4.64071 23.21 5.11071 23.01C5.58071 22.79 6.18071 22.79 6.65071 23.01L35.2307 35.57Z" fill="#0091F9"/>
<path d="M49.0011 33.15C48.9611 33.69 48.6211 34.25 48.1611 34.54C47.7111 34.85 47.0711 34.94 46.5511 34.77C44.7811 34.22 42.7611 34.22 40.9911 34.77C40.4711 34.94 39.8311 34.85 39.3811 34.54C38.9211 34.25 38.5911 33.69 38.5411 33.15L35.4211 2.09C35.3611 1.58 35.5511 1 35.9011 0.63C36.2611 0.24 36.8111 0 37.3311 0H50.2311C50.7411 0 51.3011 0.24 51.6411 0.62C51.9911 1 52.1811 1.57 52.1211 2.08L49.0011 33.14V33.15Z" fill="#0091F9"/>
<path d="M33.2714 49.41C33.6214 49 34.2214 48.74 34.7614 48.78C35.3014 48.79 35.8814 49.09 36.2014 49.53C37.3114 51.02 38.9414 52.2 40.6914 52.8C41.2114 52.97 41.6714 53.42 41.8514 53.93C42.0514 54.44 41.9914 55.08 41.7114 55.55L25.9714 82.51C25.7214 82.96 25.2314 83.31 24.7214 83.41C24.2214 83.52 23.6314 83.4 23.2214 83.09L12.7814 75.51C12.3614 75.21 12.0614 74.69 12.0114 74.18C11.9514 73.67 12.1314 73.09 12.4814 72.72L33.2614 49.42L33.2714 49.41Z" fill="#0091F9"/>
<path d="M136.179 55.94C136.179 67.98 135.209 72.36 131.319 77.1C128.039 81.11 122.809 83.54 117.209 83.54C111.609 83.54 106.269 81.11 102.979 77.1C99.0891 72.36 98.1191 67.86 98.1191 55.94V27.6C98.1191 15.68 99.0891 11.18 102.979 6.44C106.259 2.43 111.489 -0.0100002 117.209 -0.0100002C122.929 -0.0100002 128.149 2.42 131.319 6.44C135.209 11.18 136.179 15.56 136.179 27.6V55.93V55.94ZM110.279 54.6C110.279 62.26 110.519 65.91 111.129 67.61C112.099 70.53 114.289 72.23 117.209 72.23C120.129 72.23 122.559 70.28 123.409 66.88C123.769 65.3 124.019 61.41 124.019 54.6V28.94C124.019 21.04 123.779 17.63 123.169 15.93C122.199 13.01 120.009 11.31 117.209 11.31C114.049 11.31 111.739 13.26 110.889 16.66C110.519 18.24 110.279 22.37 110.279 28.94V54.6Z" fill="#272730"/>
<path d="M158.91 82.33H146.75V1.22H163.77C177.88 1.22 184.08 8.52 184.08 24.69C184.08 35.15 181.89 40.74 175.93 45.12L185.29 82.33H172.4L164.74 48.4H158.9V82.33H158.91ZM162.8 37.09C166.93 37.09 168.52 36.48 169.85 34.54C171.07 32.59 171.92 28.95 171.92 24.81C171.92 20.43 171.07 16.54 169.49 14.72C168.27 13.02 166.69 12.53 162.8 12.53H158.91V37.09H162.8Z" fill="#272730"/>
<path d="M206.818 82.33H194.658V1.22H206.818V82.33Z" fill="#272730"/>
<path d="M255.339 55.94C255.339 67.98 254.369 72.36 250.479 77.1C247.199 81.11 241.969 83.54 236.369 83.54C230.769 83.54 225.429 81.11 222.139 77.1C218.249 72.36 217.279 67.86 217.279 55.94V27.6C217.279 15.68 218.249 11.18 222.139 6.44C225.419 2.43 230.649 -0.0100002 236.369 -0.0100002C242.089 -0.0100002 247.309 2.42 250.479 6.44C254.369 11.18 255.339 15.56 255.339 27.6V55.93V55.94ZM229.439 54.6C229.439 62.26 229.679 65.91 230.289 67.61C231.259 70.53 233.449 72.23 236.369 72.23C239.289 72.23 241.719 70.28 242.569 66.88C242.929 65.3 243.179 61.41 243.179 54.6V28.94C243.179 21.04 242.939 17.63 242.329 15.93C241.359 13.01 239.169 11.31 236.369 11.31C233.209 11.31 230.899 13.26 230.049 16.66C229.679 18.24 229.439 22.37 229.439 28.94V54.6Z" fill="#272730"/>
<path d="M294.86 82.33L277.23 32.23V82.33H265.92V1.22H278.2L294.86 49.37V1.22H306.17V82.33H294.86Z" fill="#272730"/>
</g>
<defs>
<clipPath id="clip0_1549_44449">
<rect width="306.17" height="83.54" fill="white"/>
</clipPath>
</defs>
</svg>
