<svg width="113" height="33" viewBox="0 0 113 33" fill="none" xmlns="http://www.w3.org/2000/svg">
<path fill-rule="evenodd" clip-rule="evenodd" d="M22.7456 31.9735L16.945 21.6709C16.823 21.393 16.9054 21.0571 17.1483 20.8725C17.1827 20.8521 17.213 20.8307 17.2453 20.8156C17.5967 20.6933 17.9491 20.5055 18.2932 20.2458C18.6404 19.9862 18.923 19.6953 19.1461 19.3799C19.143 19.3852 19.1399 19.3884 19.1399 19.3906C19.1659 19.3616 19.191 19.3359 19.2222 19.3123C19.4662 19.1298 19.7905 19.1535 20.0084 19.3477L27.6838 28.2531C27.9299 28.6233 27.8559 29.1309 27.5086 29.4078L23.8539 32.158C23.7131 32.2575 23.5523 32.3054 23.393 32.3054C23.1465 32.3054 22.9039 32.1905 22.7456 31.9735ZM8.58873 32.1334L4.93196 29.3831C4.591 29.1084 4.51279 28.604 4.75887 28.2338L12.4259 19.3327C12.6438 19.1298 12.9754 19.1052 13.2204 19.2908C13.2517 19.3155 13.2799 19.3412 13.3049 19.3681C13.5228 19.6782 13.8054 19.9647 14.1505 20.2222C14.4977 20.4884 14.8512 20.6751 15.2037 20.7963C15.2016 20.7963 15.1984 20.7942 15.1964 20.7942C15.2297 20.8103 15.2631 20.8264 15.2912 20.8521C15.5373 21.0335 15.6166 21.3618 15.504 21.6398L9.6992 31.9488C9.53958 32.1665 9.29533 32.2825 9.04845 32.2825C8.88893 32.2824 8.72828 32.234 8.58872 32.1334H8.58873ZM12.0599 17.9366L0.796582 15.402C0.387842 15.2539 0.161572 14.7978 0.282532 14.3643L1.67871 9.91212C1.82573 9.48933 2.2668 9.25754 2.68179 9.38524L13.2204 14.1905C13.4749 14.3418 13.5989 14.6626 13.5093 14.9588C13.4947 14.9964 13.478 15.0318 13.4613 15.0693C13.2434 15.3805 13.0682 15.7432 12.9379 16.1649C12.8044 16.5867 12.7397 16.9923 12.7397 17.3797V17.3711C12.7345 17.4108 12.7251 17.4473 12.7147 17.488C12.6272 17.7634 12.3781 17.9385 12.1086 17.9385C12.0924 17.9385 12.0762 17.9379 12.0599 17.9366L12.0599 17.9366ZM19.7905 17.4666C19.7791 17.4279 19.7707 17.3904 19.7676 17.3507C19.7655 16.9676 19.6998 16.5652 19.5674 16.1467C19.4339 15.7228 19.2567 15.3558 19.0387 15.0404C19.0387 15.0446 19.0419 15.0489 19.0419 15.05C19.0273 15.0178 19.0106 14.9824 18.996 14.9416C18.9063 14.6465 19.0273 14.3332 19.2723 14.1787L29.8193 9.37129C30.2385 9.24252 30.6795 9.47323 30.8265 9.89924L32.2217 14.3482C32.3447 14.7807 32.1164 15.2356 31.7108 15.3848L20.4568 17.9173C20.4353 17.9196 20.4138 17.9207 20.3924 17.9207C20.1275 17.9207 19.8774 17.7455 19.7905 17.4666ZM17.4017 13.861C17.0493 13.7441 16.6593 13.6829 16.2328 13.6829C15.8032 13.6829 15.4101 13.7441 15.0546 13.8621C15.0577 13.8621 15.0598 13.8621 15.066 13.861C15.0285 13.8685 14.992 13.8728 14.9524 13.8728C14.6531 13.8728 14.4039 13.6561 14.3361 13.3653L13.1839 1.48847C13.1923 1.03778 13.5395 0.672933 13.9743 0.661133H18.4934C18.9261 0.672933 19.2765 1.03778 19.2848 1.48418L18.1347 13.3556C18.0721 13.6507 17.8208 13.8728 17.5153 13.8728C17.4757 13.8728 17.4423 13.8685 17.4017 13.861H17.4017Z" fill="#0091F9"/>
<path fill-rule="evenodd" clip-rule="evenodd" d="M43.0862 32.3383C41.0344 32.3383 39.0878 31.4249 37.8789 29.8949C36.465 28.1096 36.099 26.4599 36.099 21.8715V11.1279C36.099 6.54038 36.465 4.89094 37.8789 3.10559C39.0883 1.57494 41.0349 0.661133 43.0862 0.661133C45.1242 0.661133 47.1028 1.59779 48.2497 3.10559C49.6636 4.89225 50.0296 6.5417 50.0296 11.1279V21.8715C50.0296 26.4586 49.6636 28.1082 48.2497 29.8949C47.0408 31.4249 45.1105 32.3383 43.0862 32.3383ZM43.0862 4.94914C41.9272 4.94914 41.0839 5.68875 40.7724 6.97832C40.6285 7.62002 40.5493 9.27396 40.5493 11.6355V21.365C40.5493 24.2665 40.6367 25.6496 40.861 26.298C41.2186 27.4116 42.0296 28.0503 43.0862 28.0503C44.2019 28.0503 45.0505 27.2921 45.3561 26.0222C45.5021 25.3661 45.5793 23.7557 45.5793 21.365V11.6355C45.5793 8.69976 45.4948 7.36252 45.2675 6.70147C44.9096 5.58783 44.1145 4.94914 43.0862 4.94914H43.0862Z" fill="white"/>
<path fill-rule="evenodd" clip-rule="evenodd" d="M58.3523 31.8787H58.3511L53.902 31.8775V1.12207H60.1332C65.2734 1.12207 67.5656 3.86663 67.5656 10.0211C67.5656 14.0137 66.7574 16.1132 64.5835 17.7676L68.0105 31.876L63.2937 31.8775L60.4898 19.0124H58.3523V31.8775V31.8787ZM58.3523 5.41008V14.7244H59.7766C61.2812 14.7244 61.8603 14.5073 62.3584 13.7565C62.8253 12.9822 63.1154 11.5686 63.1154 10.0672C63.1154 8.33698 62.7825 6.90649 62.2249 6.24064C61.7862 5.60412 61.2142 5.41008 59.7766 5.41008H58.3523Z" fill="white"/>
<path fill-rule="evenodd" clip-rule="evenodd" d="M71.437 31.8778H75.8885V1.12207H71.437V31.8778Z" fill="white"/>
<path fill-rule="evenodd" clip-rule="evenodd" d="M86.7032 32.3383C84.6508 32.3383 82.7038 31.4249 81.4949 29.8949C80.081 28.1096 79.715 26.4599 79.715 21.8715V11.1279C79.715 6.54038 80.081 4.89094 81.4949 3.10559C82.7043 1.57494 84.6513 0.661133 86.7032 0.661133C88.7406 0.661133 90.7188 1.59779 91.8657 3.10559C93.2796 4.89094 93.6456 6.54038 93.6456 11.1279V21.8715C93.6456 26.4599 93.2796 28.1096 91.8657 29.8949C90.6579 31.4249 88.728 32.3383 86.7032 32.3383ZM86.7032 4.94914C85.5436 4.94914 84.6999 5.68875 84.3884 6.97832C84.2452 7.61702 84.1663 9.27096 84.1663 11.6355V21.365C84.1663 24.2686 84.2534 25.6517 84.477 26.298C84.8356 27.4116 85.647 28.0503 86.7032 28.0503C87.8179 28.0503 88.6665 27.2921 88.9732 26.0222C89.1178 25.3671 89.1942 23.7567 89.1942 21.365V11.6355C89.1942 8.69756 89.11 7.36032 88.8835 6.70147C88.5256 5.58783 87.7309 4.94914 86.7032 4.94914H86.7032Z" fill="white"/>
<path fill-rule="evenodd" clip-rule="evenodd" d="M108.111 31.8778L101.657 12.88V31.8778H97.518V1.12207H102.013L108.111 19.3816V1.12207H112.25V31.8778H108.111Z" fill="white"/>
</svg>
