<svg width="977" height="401" viewBox="0 0 977 401" fill="none" xmlns="http://www.w3.org/2000/svg">
<path fill-rule="evenodd" clip-rule="evenodd" d="M489 71.4219V0.37207V71.4219Z" stroke="#A2A2AA"/>
<path fill-rule="evenodd" clip-rule="evenodd" d="M489 400.495V329.445V400.495Z" stroke="#A2A2AA"/>
<path fill-rule="evenodd" clip-rule="evenodd" d="M571.268 71.4219V0.37207V71.4219Z" stroke="#A2A2AA"/>
<path fill-rule="evenodd" clip-rule="evenodd" d="M571.268 400.495V329.445V400.495Z" stroke="#A2A2AA"/>
<path fill-rule="evenodd" clip-rule="evenodd" d="M653.537 71.4219V0.37207V71.4219Z" stroke="#A2A2AA"/>
<path fill-rule="evenodd" clip-rule="evenodd" d="M735.805 71.4219V0.37207V71.4219Z" stroke="#A2A2AA"/>
<path fill-rule="evenodd" clip-rule="evenodd" d="M818.072 71.4219V0.37207V71.4219Z" stroke="#A2A2AA"/>
<path fill-rule="evenodd" clip-rule="evenodd" d="M653.537 235.958V164.908V235.958Z" stroke="#A2A2AA"/>
<path fill-rule="evenodd" clip-rule="evenodd" d="M735.805 235.958V164.908V235.958Z" stroke="#A2A2AA"/>
<path fill-rule="evenodd" clip-rule="evenodd" d="M818.072 235.958V164.908V235.958Z" stroke="#A2A2AA"/>
<path fill-rule="evenodd" clip-rule="evenodd" d="M900.342 235.958V164.908V235.958Z" stroke="#A2A2AA"/>
<path fill-rule="evenodd" clip-rule="evenodd" d="M653.537 318.226V247.176V318.226Z" stroke="#A2A2AA"/>
<path fill-rule="evenodd" clip-rule="evenodd" d="M653.537 400.495V329.445V400.495Z" stroke="#A2A2AA"/>
<path fill-rule="evenodd" clip-rule="evenodd" d="M735.805 318.226V247.176V318.226Z" stroke="#A2A2AA"/>
<path fill-rule="evenodd" clip-rule="evenodd" d="M735.805 400.495V329.445V400.495Z" stroke="#A2A2AA"/>
<path fill-rule="evenodd" clip-rule="evenodd" d="M818.072 318.226V247.176V318.226Z" stroke="#A2A2AA"/>
<path fill-rule="evenodd" clip-rule="evenodd" d="M818.072 400.495V329.445V400.495Z" stroke="#A2A2AA"/>
<path fill-rule="evenodd" clip-rule="evenodd" d="M482.5 76.9336H412.5H482.5Z" stroke="#A2A2AA"/>
<path fill-rule="evenodd" clip-rule="evenodd" d="M482.5 322.934H412.5H482.5Z" stroke="#A2A2AA"/>
<path fill-rule="evenodd" clip-rule="evenodd" d="M564.5 76.9336H494.5H564.5Z" stroke="#A2A2AA"/>
<path fill-rule="evenodd" clip-rule="evenodd" d="M564.5 322.934H494.5H564.5Z" stroke="#A2A2AA"/>
<path fill-rule="evenodd" clip-rule="evenodd" d="M647.5 76.9336H576.5H647.5Z" stroke="#A2A2AA"/>
<path fill-rule="evenodd" clip-rule="evenodd" d="M647.5 322.934H576.5H647.5Z" stroke="#A2A2AA"/>
<path fill-rule="evenodd" clip-rule="evenodd" d="M729.5 76.9336H659.5H729.5Z" stroke="#A2A2AA"/>
<path fill-rule="evenodd" clip-rule="evenodd" d="M729.5 158.934H659.5H729.5Z" stroke="#A2A2AA"/>
<path fill-rule="evenodd" clip-rule="evenodd" d="M729.5 240.934H659.5H729.5Z" stroke="#A2A2AA"/>
<path fill-rule="evenodd" clip-rule="evenodd" d="M729.5 322.934H659.5H729.5Z" stroke="#A2A2AA"/>
<path fill-rule="evenodd" clip-rule="evenodd" d="M400.5 76.9336H329.5H400.5Z" stroke="#A2A2AA"/>
<path fill-rule="evenodd" clip-rule="evenodd" d="M317.5 76.9336H247.5H317.5Z" stroke="#A2A2AA"/>
<path fill-rule="evenodd" clip-rule="evenodd" d="M235.5 76.9336H165.5H235.5Z" stroke="#A2A2AA"/>
<path fill-rule="evenodd" clip-rule="evenodd" d="M153.5 76.9336H82.5H153.5Z" stroke="#A2A2AA"/>
<path fill-rule="evenodd" clip-rule="evenodd" d="M811.5 76.9336H741.5H811.5Z" stroke="#A2A2AA"/>
<path fill-rule="evenodd" clip-rule="evenodd" d="M894.5 76.9336H823.5H894.5Z" stroke="#A2A2AA"/>
<path fill-rule="evenodd" clip-rule="evenodd" d="M317.5 158.934H247.5H317.5Z" stroke="#A2A2AA"/>
<path fill-rule="evenodd" clip-rule="evenodd" d="M235.5 158.934H165.5H235.5Z" stroke="#A2A2AA"/>
<path fill-rule="evenodd" clip-rule="evenodd" d="M153.5 158.934H82.5H153.5Z" stroke="#A2A2AA"/>
<path fill-rule="evenodd" clip-rule="evenodd" d="M71.5 158.934H0.5H71.5Z" stroke="#A2A2AA"/>
<path fill-rule="evenodd" clip-rule="evenodd" d="M811.5 158.934H741.5H811.5Z" stroke="#A2A2AA"/>
<path fill-rule="evenodd" clip-rule="evenodd" d="M894.5 158.934H823.5H894.5Z" stroke="#A2A2AA"/>
<path fill-rule="evenodd" clip-rule="evenodd" d="M976.5 158.934H905.5H976.5Z" stroke="#A2A2AA"/>
<path fill-rule="evenodd" clip-rule="evenodd" d="M400.5 322.934H329.5H400.5Z" stroke="#A2A2AA"/>
<path fill-rule="evenodd" clip-rule="evenodd" d="M317.5 240.934H247.5H317.5Z" stroke="#A2A2AA"/>
<path fill-rule="evenodd" clip-rule="evenodd" d="M235.5 240.934H165.5H235.5Z" stroke="#A2A2AA"/>
<path fill-rule="evenodd" clip-rule="evenodd" d="M153.5 240.934H82.5H153.5Z" stroke="#A2A2AA"/>
<path fill-rule="evenodd" clip-rule="evenodd" d="M71.5 240.934H0.5H71.5Z" stroke="#A2A2AA"/>
<path fill-rule="evenodd" clip-rule="evenodd" d="M317.5 322.934H247.5H317.5Z" stroke="#A2A2AA"/>
<path fill-rule="evenodd" clip-rule="evenodd" d="M235.5 322.934H165.5H235.5Z" stroke="#A2A2AA"/>
<path fill-rule="evenodd" clip-rule="evenodd" d="M153.5 322.934H82.5H153.5Z" stroke="#A2A2AA"/>
<path fill-rule="evenodd" clip-rule="evenodd" d="M811.5 240.934H741.5H811.5Z" stroke="#A2A2AA"/>
<path fill-rule="evenodd" clip-rule="evenodd" d="M811.5 322.934H741.5H811.5Z" stroke="#A2A2AA"/>
<path fill-rule="evenodd" clip-rule="evenodd" d="M894.5 240.934H823.5H894.5Z" stroke="#A2A2AA"/>
<path fill-rule="evenodd" clip-rule="evenodd" d="M976.5 240.934H905.5H976.5Z" stroke="#A2A2AA"/>
<path fill-rule="evenodd" clip-rule="evenodd" d="M894.5 322.934H823.5H894.5Z" stroke="#A2A2AA"/>
<path fill-rule="evenodd" clip-rule="evenodd" d="M406.732 71.4219V0.37207V71.4219Z" stroke="#A2A2AA"/>
<path fill-rule="evenodd" clip-rule="evenodd" d="M324.465 71.4219V0.37207V71.4219Z" stroke="#A2A2AA"/>
<path fill-rule="evenodd" clip-rule="evenodd" d="M242.195 71.4219V0.37207V71.4219Z" stroke="#A2A2AA"/>
<path fill-rule="evenodd" clip-rule="evenodd" d="M159.928 71.4219V0.37207V71.4219Z" stroke="#A2A2AA"/>
<path fill-rule="evenodd" clip-rule="evenodd" d="M324.465 235.958V164.908V235.958Z" stroke="#A2A2AA"/>
<path fill-rule="evenodd" clip-rule="evenodd" d="M242.195 235.958V164.908V235.958Z" stroke="#A2A2AA"/>
<path fill-rule="evenodd" clip-rule="evenodd" d="M159.928 235.958V164.908V235.958Z" stroke="#A2A2AA"/>
<path fill-rule="evenodd" clip-rule="evenodd" d="M77.6582 235.958V164.908V235.958Z" stroke="#A2A2AA"/>
<path fill-rule="evenodd" clip-rule="evenodd" d="M406.732 400.495V329.445V400.495Z" stroke="#A2A2AA"/>
<path fill-rule="evenodd" clip-rule="evenodd" d="M324.465 318.226V247.176V318.226Z" stroke="#A2A2AA"/>
<path fill-rule="evenodd" clip-rule="evenodd" d="M242.195 318.226V247.176V318.226Z" stroke="#A2A2AA"/>
<path fill-rule="evenodd" clip-rule="evenodd" d="M159.928 318.226V247.176V318.226Z" stroke="#A2A2AA"/>
<path fill-rule="evenodd" clip-rule="evenodd" d="M324.465 400.495V329.445V400.495Z" stroke="#A2A2AA"/>
<path fill-rule="evenodd" clip-rule="evenodd" d="M242.195 400.495V329.445V400.495Z" stroke="#A2A2AA"/>
<path fill-rule="evenodd" clip-rule="evenodd" d="M159.928 400.495V329.445V400.495Z" stroke="#A2A2AA"/>
<path fill-rule="evenodd" clip-rule="evenodd" d="M324.465 153.69V82.6401V153.69Z" stroke="#A2A2AA"/>
<path fill-rule="evenodd" clip-rule="evenodd" d="M242.195 153.69V82.6401V153.69Z" stroke="#A2A2AA"/>
<path fill-rule="evenodd" clip-rule="evenodd" d="M159.928 153.69V82.6401V153.69Z" stroke="#A2A2AA"/>
<path fill-rule="evenodd" clip-rule="evenodd" d="M653.537 153.69V82.6401V153.69Z" stroke="#A2A2AA"/>
<path fill-rule="evenodd" clip-rule="evenodd" d="M735.805 153.69V82.6401V153.69Z" stroke="#A2A2AA"/>
<path fill-rule="evenodd" clip-rule="evenodd" d="M818.072 153.69V82.6401V153.69Z" stroke="#A2A2AA"/>
</svg>
